<?xml version="1.0" encoding="utf-8"?>
<!-- Generator: Adobe Illustrator 17.0.0, SVG Export Plug-In . SVG Version: 6.00 Build 0)  -->
<!DOCTYPE svg PUBLIC "-//W3C//DTD SVG 1.1//EN" "http://www.w3.org/Graphics/SVG/1.1/DTD/svg11.dtd">
<svg version="1.1" id="Layer_1" focusable="false" xmlns="http://www.w3.org/2000/svg" xmlns:xlink="http://www.w3.org/1999/xlink"
	 x="0px" y="0px" width="841.89px" height="595.28px" viewBox="0 0 841.89 595.28" enable-background="new 0 0 841.89 595.28"
	 xml:space="preserve">
<path fill="#1E0644" d="M473.846,234.159c0-25.695-18.137-39.879-49.994-39.879h-58.598v82.781h49.413
	C452.802,276.945,473.846,261.598,473.846,234.159z M687.193,219.277c-11.045-35.926-12.673-79.991-11.394-114.057
	c1.279-35.461-26.392-68.015-63.597-68.015H229.921c-37.321,0-64.876,32.671-63.597,68.015
	c1.163,34.066-0.349,78.131-11.394,114.057c-11.161,36.042-29.88,58.83-60.691,61.737v33.136
	c30.694,2.907,49.529,25.695,60.691,61.737c11.045,35.926,12.673,79.991,11.394,114.057c-1.279,35.461,26.392,68.015,63.597,68.015
	h382.165c37.321,0,64.876-32.671,63.597-68.015c-1.163-34.066,0.349-78.131,11.394-114.057c11.161-36.042,29.88-58.83,60.574-61.737
	v-33.136C717.074,278.107,698.239,255.319,687.193,219.277z M435.129,436.112H321.305V159.051h113.243
	c50.343,0,83.362,27.206,83.362,69.062c0,29.415-22.207,55.691-50.576,60.226v1.511c38.6,4.186,64.527,30.927,64.527,67.783
	C531.862,406.581,495.471,436.112,435.129,436.112z M423.503,309.732h-58.249v91.152h60.807c39.763,0,60.807-15.928,60.807-45.925
	C486.868,325.079,465.242,309.732,423.503,309.732z"/>
</svg>
