<?xml version="1.0" encoding="utf-8"?>
<!-- Generator: Adobe Illustrator 17.0.0, SVG Export Plug-In . SVG Version: 6.00 Build 0)  -->
<!DOCTYPE svg PUBLIC "-//W3C//DTD SVG 1.1//EN" "http://www.w3.org/Graphics/SVG/1.1/DTD/svg11.dtd">
<svg version="1.1" id="Layer_1" focusable="false" xmlns="http://www.w3.org/2000/svg" xmlns:xlink="http://www.w3.org/1999/xlink"
	 x="0px" y="0px" width="841.89px" height="595.28px" viewBox="0 0 841.89 595.28" enable-background="new 0 0 841.89 595.28"
	 xml:space="preserve">
<path fill="#1B064C" d="M606.97,418.324c26.113,0,36.159,22.707,36.159,37.193c0,26.904-77.852,102.581-191.257,102.581
	c-159.4,0-255.087-136.961-255.087-260.435c0-120.684,92.861-259.389,255.087-259.389c115.649,0,191.257,76.875,191.257,102.581
	c0,14.266-11.077,37.217-37.217,37.217c-36.414,0-53.25-65.399-154.052-65.399c-113.929,0-180.677,98.349-180.677,184.979
	c0,86.071,65.597,186.025,180.677,186.025C554.069,483.665,570.346,418.324,606.97,418.324z"/>
</svg>
