<?xml version="1.0" encoding="utf-8"?>
<!-- Generator: Adobe Illustrator 17.0.0, SVG Export Plug-In . SVG Version: 6.00 Build 0)  -->
<!DOCTYPE svg PUBLIC "-//W3C//DTD SVG 1.1//EN" "http://www.w3.org/Graphics/SVG/1.1/DTD/svg11.dtd">
<svg version="1.1" id="Layer_1" focusable="false" xmlns="http://www.w3.org/2000/svg" xmlns:xlink="http://www.w3.org/1999/xlink"
	 x="0px" y="0px" width="841.89px" height="595.28px" viewBox="0 0 841.89 595.28" enable-background="new 0 0 841.89 595.28"
	 xml:space="preserve">
<path fill="#1B064C" d="M520.585,363.795c11.394-7.79,27.206-14.533,27.206-14.533s-44.995,8.139-89.757,11.859
	c-54.761,4.534-113.592,5.464-143.123,1.511c-69.876-9.301,38.368-34.996,38.368-34.996s-41.972-2.79-93.71,22.09
	C198.529,379.258,410.714,392.745,520.585,363.795z M421.294,326.474c-22.09-49.645-96.617-93.245,0-169.515
	C541.861,61.853,480.008,0,480.008,0c24.997,98.244-87.897,128.008-128.706,189.048C323.514,230.787,364.905,275.55,421.294,326.474
	L421.294,326.474z M554.534,121.614c0.116,0-203.697,50.924-106.383,163.004c28.718,33.019-7.557,62.783-7.557,62.783
	s72.899-37.67,39.414-84.758C448.733,218.696,424.782,196.838,554.534,121.614z M547.442,436.112
	c-0.635,1.108-1.418,2.125-2.325,3.023c149.169-39.182,94.291-138.24,23.021-113.126c-3.849,1.414-7.175,3.97-9.534,7.325
	c4.162-1.506,8.439-2.673,12.789-3.488C607.435,322.288,659.173,378.096,547.442,436.112L547.442,436.112z M602.319,508.546
	c0,0,16.859,13.836-18.486,24.648c-67.318,20.346-279.968,26.509-339.031,0.814c-21.277-9.185,18.603-22.09,31.159-24.765
	c13.022-2.79,20.579-2.325,20.579-2.325c-23.602-16.626-152.657,32.671-65.574,46.739
	C468.381,592.257,663.94,536.333,602.319,508.546z M342.349,460.412c-91.501,25.578,55.691,78.363,172.189,28.485
	c-11.362-4.414-22.33-9.781-32.787-16.045c-51.971,9.883-76.038,10.58-123.242,5.232
	C319.561,473.666,342.349,460.412,342.349,460.412z M551.395,573.422c-91.501,17.207-204.395,15.231-271.248,4.186
	c0-0.116,13.719,11.278,84.176,15.812c107.197,6.86,271.829-3.837,275.666-54.529C639.99,538.891,632.548,558.075,551.395,573.422
	L551.395,573.422z M500.703,410.418c-68.829,13.254-108.708,12.906-159.051,7.674c-38.949-4.069-13.487-22.904-13.487-22.904
	c-100.919,33.484,56.04,71.387,197.07,30.113C516.12,422.081,507.769,417.015,500.703,410.418z"/>
</svg>
