<?xml version="1.0" encoding="utf-8"?>
<!-- Generator: Adobe Illustrator 17.0.0, SVG Export Plug-In . SVG Version: 6.00 Build 0)  -->
<!DOCTYPE svg PUBLIC "-//W3C//DTD SVG 1.1//EN" "http://www.w3.org/Graphics/SVG/1.1/DTD/svg11.dtd">
<svg version="1.1" id="Layer_1" focusable="false" xmlns="http://www.w3.org/2000/svg" xmlns:xlink="http://www.w3.org/1999/xlink"
	 x="0px" y="0px" width="841.89px" height="595.28px" viewBox="0 0 841.89 595.28" enable-background="new 0 0 841.89 595.28"
	 xml:space="preserve">
<path fill="#1B064C" d="M625.573,37.205H216.318c-30.81,0-55.807,24.997-55.807,55.808v409.255c0,30.81,24.997,55.807,55.807,55.807
	h409.255c30.81,0,55.807-24.997,55.807-55.807V93.013C681.38,62.202,656.383,37.205,625.573,37.205z M443.966,443.437
	c0,50.692-29.764,73.829-73.131,73.829c-39.182,0-61.853-20.23-73.48-44.762l39.879-24.067
	c7.674,13.603,14.649,25.113,31.508,25.113c16.045,0,26.276-6.278,26.276-30.81V276.363h48.948L443.966,443.437L443.966,443.437z
	 M559.766,517.266c-45.46,0-74.875-21.625-89.176-49.994l39.879-23.021c10.464,17.091,24.183,29.764,48.25,29.764
	c20.23,0,33.252-10.115,33.252-24.183c0-16.742-13.254-22.672-35.694-32.554l-12.208-5.232
	c-35.345-14.998-58.714-33.95-58.714-73.829c0-36.74,28.02-64.644,71.62-64.644c31.159,0,53.482,10.813,69.527,39.182
	l-38.135,24.416c-8.371-14.998-17.44-20.928-31.508-20.928c-14.301,0-23.369,9.069-23.369,20.928
	c0,14.649,9.069,20.579,30.113,29.764l12.208,5.232c41.623,17.789,64.992,36.042,64.992,76.968
	C640.803,493.083,606.156,517.266,559.766,517.266L559.766,517.266z"/>
</svg>
