<?xml version="1.0" encoding="utf-8"?>
<!-- Generator: Adobe Illustrator 17.0.0, SVG Export Plug-In . SVG Version: 6.00 Build 0)  -->
<!DOCTYPE svg PUBLIC "-//W3C//DTD SVG 1.1//EN" "http://www.w3.org/Graphics/SVG/1.1/DTD/svg11.dtd">
<svg version="1.1" id="Layer_1" focusable="false" xmlns="http://www.w3.org/2000/svg" xmlns:xlink="http://www.w3.org/1999/xlink"
	 x="0px" y="0px" width="841.89px" height="595.28px" viewBox="0 0 841.89 595.28" enable-background="new 0 0 841.89 595.28"
	 xml:space="preserve">
<path fill="#1B064C" d="M681.38,74.422v446.46c0,20.544-16.638,37.205-37.205,37.205s-37.205-16.661-37.205-37.205V197.303
	L451.872,429.95c-13.812,20.707-48.111,20.707-61.911,0L234.92,197.303V520.87c0,20.544-16.638,37.205-37.205,37.205
	s-37.205-16.661-37.205-37.205V74.41c0-16.382,10.719-30.869,26.416-35.612c15.661-4.832,32.659,1.327,41.751,14.975L420.945,342.17
	L613.248,53.715c9.083-13.638,26.125-19.8,41.751-14.975C670.684,43.565,681.38,58.04,681.38,74.422z"/>
</svg>
