<?xml version="1.0" encoding="utf-8"?>
<!-- Generator: Adobe Illustrator 17.0.0, SVG Export Plug-In . SVG Version: 6.00 Build 0)  -->
<!DOCTYPE svg PUBLIC "-//W3C//DTD SVG 1.1//EN" "http://www.w3.org/Graphics/SVG/1.1/DTD/svg11.dtd">
<svg version="1.1" id="Layer_1" focusable="false" xmlns="http://www.w3.org/2000/svg" xmlns:xlink="http://www.w3.org/1999/xlink"
	 x="0px" y="0px" width="841.89px" height="595.28px" viewBox="0 0 841.89 595.28" enable-background="new 0 0 841.89 595.28"
	 xml:space="preserve">
<path fill="#1B064C" d="M420.945,590.629c-7.79,0-15.696-2.093-22.556-6.046l-71.736-42.437c-10.696-6.046-5.464-8.139-1.977-9.301
	c14.301-4.999,17.207-6.046,32.438-14.766c1.628-0.93,3.72-0.581,5.348,0.465l55.11,32.671c1.977,1.163,4.767,1.163,6.627,0
	l214.743-123.939c1.977-1.163,3.255-3.488,3.255-5.813V173.585c0-2.442-1.279-4.651-3.372-5.93L424.2,43.832
	c-1.977-1.163-4.651-1.163-6.627,0l-214.51,123.939c-2.093,1.163-3.372,3.488-3.372,5.93v247.762c0,2.325,1.279,4.651,3.372,5.697
	l58.83,33.95c31.973,15.928,51.506-2.79,51.506-21.742V194.745c0-3.488,2.79-6.162,6.278-6.162h27.206
	c3.372,0,6.278,2.674,6.278,6.162v244.739c0,42.553-23.253,66.969-63.597,66.969c-12.44,0-22.207,0-49.413-13.487l-56.273-32.438
	c-13.952-8.022-22.556-23.021-22.556-39.182V173.585c0-16.045,8.604-31.159,22.556-39.182l214.51-123.939
	c13.603-7.674,31.624-7.674,45.111,0l214.743,124.055c13.952,8.022,22.556,23.021,22.556,39.182v247.762
	c0,16.045-8.604,31.043-22.556,39.182L443.501,584.584C436.641,588.537,428.851,590.629,420.945,590.629z M594.297,346.355
	c0-46.39-31.392-58.714-97.314-67.434c-66.736-8.836-73.48-13.371-73.48-28.95c0-12.905,5.697-30.113,55.11-30.113
	c44.065,0,60.342,9.534,67.085,39.298c0.581,2.79,3.139,4.883,6.046,4.883h27.904c1.744,0,3.372-0.698,4.534-1.977
	s1.744-3.023,1.628-4.767c-4.302-51.273-38.368-75.108-107.197-75.108c-61.272,0-97.779,25.811-97.779,69.178
	c0,46.971,36.391,59.993,95.105,65.806c70.341,6.86,75.805,17.207,75.805,31.043c0,23.951-19.3,34.182-64.527,34.182
	c-56.854,0-69.294-14.301-73.48-42.553c-0.465-3.023-3.023-5.232-6.162-5.232h-27.787c-3.488,0-6.162,2.79-6.162,6.162
	c0,36.159,19.649,79.293,113.708,79.293C555.232,419.951,594.297,393.094,594.297,346.355L594.297,346.355z"/>
</svg>
