<?xml version="1.0" encoding="utf-8"?>
<!-- Generator: Adobe Illustrator 17.0.0, SVG Export Plug-In . SVG Version: 6.00 Build 0)  -->
<!DOCTYPE svg PUBLIC "-//W3C//DTD SVG 1.1//EN" "http://www.w3.org/Graphics/SVG/1.1/DTD/svg11.dtd">
<svg version="1.1" id="Layer_1" focusable="false" xmlns="http://www.w3.org/2000/svg" xmlns:xlink="http://www.w3.org/1999/xlink"
	 x="0px" y="0px" width="841.89px" height="595.28px" viewBox="0 0 841.89 595.28" enable-background="new 0 0 841.89 595.28"
	 xml:space="preserve">
<path fill="#20084F" d="M609.528,206.023c-6.278-2.093-12.557-4.069-18.835-5.93c1.046-4.302,1.977-8.604,2.907-12.905
	c14.301-69.294,4.883-124.986-26.857-143.356c-30.578-17.556-80.456,0.698-130.915,44.646c-4.999,4.302-9.883,8.836-14.533,13.371
	c-3.139-3.023-6.395-6.046-9.65-8.952c-52.901-46.971-105.918-66.736-137.659-48.25c-30.462,17.672-39.53,70.108-26.741,135.682
	c1.279,6.511,2.674,12.905,4.302,19.416c-7.441,2.093-14.766,4.418-21.625,6.86c-62.086,21.509-106.616,55.459-106.616,90.571
	c0,36.275,47.436,72.666,111.964,94.757c5.232,1.744,10.464,3.488,15.812,4.999c-1.744,6.976-3.255,13.836-4.651,20.928
	c-12.208,64.527-2.674,115.684,27.787,133.24c31.392,18.137,84.176-0.465,135.566-45.46c4.069-3.604,8.139-7.325,12.208-11.278
	c5.116,4.999,10.464,9.766,15.812,14.417c49.762,42.786,98.942,60.109,129.287,42.553c31.392-18.137,41.623-73.131,28.369-140.1
	c-1.046-5.116-2.209-10.348-3.488-15.696c3.721-1.046,7.325-2.209,10.929-3.372c67.085-22.207,115.684-58.133,115.684-94.989
	C718.585,261.946,672.776,227.764,609.528,206.023L609.528,206.023z M452.22,107.313c43.251-37.67,83.595-52.436,101.965-41.856
	c19.649,11.278,27.206,56.854,14.882,116.731c-0.814,3.953-1.628,7.79-2.674,11.627c-25.811-5.813-51.971-9.999-78.247-12.324
	c-15.115-21.625-31.624-42.321-49.529-61.737C443.152,115.452,447.57,111.382,452.22,107.313z M317.701,357.517
	c5.93,10.115,11.975,20.23,18.37,30.113c-18.137-1.977-36.159-4.883-53.947-8.72c5.116-16.742,11.51-34.066,18.951-51.738
	C306.423,337.403,311.888,347.518,317.701,357.517L317.701,357.517z M282.473,217.649c16.742-3.721,34.531-6.743,53.017-9.069
	c-6.162,9.65-12.208,19.533-17.905,29.531c-5.697,9.883-11.278,19.998-16.51,30.229C293.75,251.017,287.588,234.043,282.473,217.649
	L282.473,217.649z M314.329,297.756c7.674-16.045,16.045-31.741,24.881-47.204c8.836-15.463,18.37-30.462,28.369-45.227
	c17.44-1.279,35.229-1.977,53.366-1.977c18.137,0,36.042,0.698,53.366,1.977c9.883,14.649,19.3,29.648,28.253,44.995
	c8.952,15.347,17.324,31.043,25.23,46.971c-7.79,16.045-16.161,31.857-25.113,47.436c-8.836,15.463-18.254,30.462-28.136,45.344
	c-17.324,1.279-35.345,1.86-53.598,1.86s-35.926-0.581-53.017-1.628c-10.115-14.766-19.649-29.88-28.601-45.344
	C330.374,329.497,322.119,313.801,314.329,297.756L314.329,297.756z M524.305,357.284c5.93-10.231,11.51-20.579,16.975-31.043
	c7.441,16.859,13.952,33.95,19.649,51.506c-18.021,4.069-36.275,7.208-54.645,9.301
	C512.562,377.282,518.492,367.283,524.305,357.284L524.305,357.284z M541.047,268.341c-5.464-10.231-11.045-20.463-16.859-30.462
	c-5.697-9.883-11.627-19.649-17.789-29.299c18.719,2.325,36.624,5.464,53.366,9.301C554.418,235.089,548.14,251.831,541.047,268.341
	z M421.178,137.542c12.208,13.254,23.718,27.206,34.415,41.623c-23.021-1.046-46.157-1.046-69.178,0
	C397.808,164.167,409.551,150.215,421.178,137.542z M286.309,66.271c19.533-11.394,62.9,4.883,108.592,45.344
	c2.907,2.558,5.813,5.348,8.836,8.139c-18.021,19.416-34.647,40.112-49.878,61.737c-26.276,2.325-52.32,6.395-78.131,12.092
	c-1.511-5.93-2.79-11.975-4.069-18.021C260.731,119.289,267.939,76.852,286.309,66.271L286.309,66.271z M257.824,372.748
	c-4.883-1.395-9.65-2.907-14.417-4.534c-24.765-7.79-52.901-20.114-73.247-36.275c-11.743-8.139-19.649-20.695-21.858-34.763
	c0-21.277,36.74-48.483,89.757-66.969c6.627-2.325,13.371-4.418,20.114-6.395c7.906,25.23,17.44,49.994,28.485,73.945
	C275.497,322.056,265.847,347.169,257.824,372.748z M393.39,486.688c-19.184,17.556-41.391,31.508-65.574,41.042
	c-12.905,6.162-27.787,6.743-41.042,1.511c-18.486-10.696-26.16-51.738-15.696-106.964c1.279-6.511,2.674-13.022,4.302-19.416
	c26.043,5.581,52.32,9.418,78.944,11.394c15.347,21.742,32.206,42.553,50.227,62.086
	C400.831,479.944,397.111,483.432,393.39,486.688L393.39,486.688z M421.875,458.435c-11.859-12.789-23.718-26.974-35.228-42.204
	c11.161,0.465,22.672,0.698,34.298,0.698c11.975,0,23.718-0.233,35.345-0.814C445.593,430.88,434.083,444.949,421.875,458.435z
	 M573.834,493.315c-1.046,14.184-8.022,27.439-19.184,36.391c-18.486,10.696-57.9-3.255-100.454-39.763
	c-4.883-4.186-9.766-8.72-14.766-13.371c17.789-19.649,34.182-40.46,49.064-62.318c26.625-2.209,53.133-6.278,79.293-12.208
	c1.163,4.767,2.209,9.534,3.139,14.184C576.625,441.344,577.555,467.504,573.834,493.315L573.834,493.315z M594.995,368.33
	c-3.255,1.046-6.511,2.093-9.883,3.023c-8.139-25.346-18.137-50.11-29.648-74.177c11.161-23.718,20.579-48.134,28.485-73.131
	c6.046,1.744,11.859,3.604,17.44,5.464c54.18,18.603,92.199,46.274,92.199,67.434C693.588,319.73,653.011,349.146,594.995,368.33z
	 M420.945,350.89c29.415,0,53.25-23.834,53.25-53.25s-23.834-53.25-53.25-53.25c-29.415,0-53.25,23.834-53.25,53.25
	C367.695,327.055,391.53,350.89,420.945,350.89L420.945,350.89z"/>
</svg>
