<?xml version="1.0" encoding="utf-8"?>
<!-- Generator: Adobe Illustrator 17.0.0, SVG Export Plug-In . SVG Version: 6.00 Build 0)  -->
<!DOCTYPE svg PUBLIC "-//W3C//DTD SVG 1.1//EN" "http://www.w3.org/Graphics/SVG/1.1/DTD/svg11.dtd">
<svg version="1.1" id="Layer_1" focusable="false" xmlns="http://www.w3.org/2000/svg" xmlns:xlink="http://www.w3.org/1999/xlink"
	 x="0px" y="0px" width="841.89px" height="595.28px" viewBox="0 0 841.89 595.28" enable-background="new 0 0 841.89 595.28"
	 xml:space="preserve">
<path fill="#1B064C" d="M574.997,351.006c-15.411,0-27.904-12.493-27.904-27.904s12.493-27.904,27.904-27.904
	s27.904,12.493,27.904,27.904S590.408,351.006,574.997,351.006 M266.777,351.006c-15.411,0-27.904-12.493-27.904-27.904
	s12.493-27.904,27.904-27.904s27.904,12.493,27.904,27.904S282.188,351.006,266.777,351.006 M584.996,183.002l55.738-96.5
	c3.578-5.332,2.156-12.555-3.176-16.133c-5.332-3.578-12.555-2.156-16.133,3.176c-0.286,0.426-0.543,0.87-0.77,1.33l0,0
	l-56.435,97.745c-91.194-40.901-195.517-40.901-286.711,0l-56.307-97.686c-2.843-5.757-9.816-8.12-15.573-5.276
	c-5.757,2.843-8.12,9.816-5.276,15.573c0.227,0.46,0.484,0.904,0.77,1.33l0,0l55.738,96.5
	C161.126,235.089,95.68,331.938,86.1,446.46h669.69C746.21,331.996,680.752,235.089,584.996,183.002"/>
</svg>
