<?xml version="1.0" encoding="utf-8"?>
<!-- Generator: Adobe Illustrator 17.0.0, SVG Export Plug-In . SVG Version: 6.00 Build 0)  -->
<!DOCTYPE svg PUBLIC "-//W3C//DTD SVG 1.1//EN" "http://www.w3.org/Graphics/SVG/1.1/DTD/svg11.dtd">
<svg version="1.1" id="Layer_1" focusable="false" xmlns="http://www.w3.org/2000/svg" xmlns:xlink="http://www.w3.org/1999/xlink"
	 x="0px" y="0px" width="841.89px" height="595.28px" viewBox="0 0 841.89 595.28" enable-background="new 0 0 841.89 595.28"
	 xml:space="preserve">
<path fill="#1B064C" d="M349.558,37.205h142.774c24.067,0,45.344,15.37,52.901,38.158l12.092,36.252h86.85
	c41.042,0,74.41,33.368,74.41,74.41v297.64c0,41.042-33.368,74.41-74.41,74.41h-446.46c-41.1,0-74.41-33.368-74.41-74.41v-297.64
	c0-41.042,33.31-74.41,74.41-74.41h86.85l12.092-36.252C304.214,52.575,325.491,37.205,349.558,37.205L349.558,37.205z
	 M420.945,446.46c61.621,0,111.615-49.994,111.615-111.615c0-62.667-49.994-111.615-111.615-111.615
	c-62.667,0-111.615,48.948-111.615,111.615C309.33,396.466,358.278,446.46,420.945,446.46z"/>
</svg>
