<?xml version="1.0" encoding="utf-8"?>
<!-- Generator: Adobe Illustrator 17.0.0, SVG Export Plug-In . SVG Version: 6.00 Build 0)  -->
<!DOCTYPE svg PUBLIC "-//W3C//DTD SVG 1.1//EN" "http://www.w3.org/Graphics/SVG/1.1/DTD/svg11.dtd">
<svg version="1.1" id="Layer_1" focusable="false" xmlns="http://www.w3.org/2000/svg" xmlns:xlink="http://www.w3.org/1999/xlink"
	 x="0px" y="0px" width="841.89px" height="595.28px" viewBox="0 0 841.89 595.28" enable-background="new 0 0 841.89 595.28"
	 xml:space="preserve">
<path fill="#1B064C" d="M681.38,85.013v53.192c0,46.774-116.731,85.025-260.435,85.025S160.51,184.979,160.51,138.24V85.013
	C160.51,38.228,277.241,0,420.945,0S681.38,38.228,681.38,85.013z M681.38,204.628v119.637c0,46.739-116.731,84.99-260.435,84.99
	s-260.435-38.251-260.435-84.99V204.628c55.947,38.507,158.354,56.528,260.435,56.528S625.456,243.111,681.38,204.628z
	 M681.38,390.653V510.29c0,46.739-116.731,84.99-260.435,84.99S160.51,557.052,160.51,510.255V390.653
	c55.947,38.519,158.354,56.54,260.435,56.54S625.456,429.136,681.38,390.653z"/>
</svg>
