<?xml version="1.0" encoding="utf-8"?>
<!-- Generator: Adobe Illustrator 17.0.0, SVG Export Plug-In . SVG Version: 6.00 Build 0)  -->
<!DOCTYPE svg PUBLIC "-//W3C//DTD SVG 1.1//EN" "http://www.w3.org/Graphics/SVG/1.1/DTD/svg11.dtd">
<svg version="1.1" id="Layer_1" focusable="false" xmlns="http://www.w3.org/2000/svg" xmlns:xlink="http://www.w3.org/1999/xlink"
	 x="0px" y="0px" width="841.89px" height="595.28px" viewBox="0 0 841.89 595.28" enable-background="new 0 0 841.89 595.28"
	 xml:space="preserve">
<path fill="#1B064C" d="M213.992,111.371C213.992,49.866,263.859,0,325.375,0h191.141c61.505,0,110.336,49.866,110.336,111.371
	c0,38.961-18.951,73.259-49.297,93.14c30.345,19.881,49.297,54.18,49.297,93.129c0,61.505-48.832,111.382-110.336,111.382h-2.442
	c-28.834,0-55.11-10.929-74.875-28.95v102.663c0,62.318-51.157,112.545-113.243,112.545c-61.342,0-111.964-49.762-111.964-111.382
	c0-38.949,19.986-73.247,50.273-93.129c-30.287-20.928-50.273-54.18-50.273-93.129s19.998-73.247,50.273-93.129
	C233.99,184.63,213.992,150.331,213.992,111.371z M402.691,222.765h-77.317c-41.367,0-74.898,33.484-74.898,74.875
	c0,41.158,33.264,74.643,74.433,74.875c0.116,0,0.349,0,0.465,0h77.317V222.765z M439.199,297.64
	c0,41.391,33.485,74.875,74.875,74.875h2.442c41.274,0,74.875-33.484,74.875-74.875s-33.601-74.875-74.875-74.875h-2.442
	C472.683,222.765,439.199,256.249,439.199,297.64z M325.375,409.022c-0.116,0-0.349,0-0.465,0
	c-41.17,0.233-74.433,33.717-74.433,74.875c0,41.274,33.973,74.875,75.48,74.875c42.204,0,76.735-34.182,76.735-76.038v-73.712
	H325.375z M325.375,36.484c-41.367,0-74.898,33.531-74.898,74.887c0,41.402,33.531,74.887,74.898,74.887h77.317V36.484H325.375z
	 M439.199,186.258h77.317c41.274,0,74.875-33.485,74.875-74.887c0-41.356-33.601-74.887-74.875-74.887h-77.317V186.258z"/>
</svg>
