<?xml version="1.0" encoding="utf-8"?>
<!-- Generator: Adobe Illustrator 17.0.0, SVG Export Plug-In . SVG Version: 6.00 Build 0)  -->
<!DOCTYPE svg PUBLIC "-//W3C//DTD SVG 1.1//EN" "http://www.w3.org/Graphics/SVG/1.1/DTD/svg11.dtd">
<svg version="1.1" id="Layer_1" focusable="false" xmlns="http://www.w3.org/2000/svg" xmlns:xlink="http://www.w3.org/1999/xlink"
	 x="0px" y="0px" width="841.89px" height="595.28px" viewBox="0 0 841.89 595.28" enable-background="new 0 0 841.89 595.28"
	 xml:space="preserve">
<path fill="#1B064C" d="M374.788,184.165h-92.199c-46.506-12.208-151.715-9.069-151.715,86.967c0,34.984,17.44,59.563,40.693,70.922
	c-29.183,26.741-43.018,39.356-43.018,57.214c0,12.789,5.197,24.579,20.8,31.171c-16.591,15.556-26.044,26.95-26.044,48.111
	c0,37.333,32.613,59.086,118.126,59.086c82.258,0,129.985-30.717,129.985-85.083c0-68.201-52.506-65.69-176.259-73.247
	l15.614-25.055c31.706,8.813,138.007,11.627,138.007-78.933c0-21.742-8.987-36.868-17.44-47.75l43.495-3.302L374.788,184.165z
	 M301.052,465.411c0,37.275-121.963,37.321-121.963,2.825c0-9.464,6.127-17.44,12.289-25.044
	c90.35,6.162,109.662,3.918,109.662,22.218H301.052z M241.977,308.918c-61.388,0-58.668-82.735,1.395-82.735
	C300.97,226.183,302.459,308.918,241.977,308.918z M396.959,425.765v-37.321c31.101-4.255,31.671-2.325,31.671-12.789V236.717
	c0-9.883-2.383-8.58-31.671-18.905l5.197-38.275h97.849v196.14c0,7.569,0.465,8.511,7.569,9.464l24.102,3.302v37.321
	L396.959,425.765z M457.941,141.728c-26.939,0-42.542-15.614-42.542-42.565s15.603-41.588,42.542-41.588
	c27.415,0,43.018,14.673,43.018,41.588S485.356,141.728,457.941,141.728z M718.585,407.511
	c-20.335,9.917-50.11,18.905-77.061,18.905c-56.249,0-77.514-22.672-77.514-76.107V226.485c0-6.302,1.221-4.72-36.868-4.72V179.63
	c41.6-4.732,58.133-25.578,63.33-77.049h44.913c0,76.538-1.558,71.864,3.79,71.864h66.62v47.262h-70.41v112.952
	c0,8.046-5.72,59.772,70.422,31.206L718.585,407.511z"/>
</svg>
