<?xml version="1.0" encoding="utf-8"?>
<!-- Generator: Adobe Illustrator 17.0.0, SVG Export Plug-In . SVG Version: 6.00 Build 0)  -->
<!DOCTYPE svg PUBLIC "-//W3C//DTD SVG 1.1//EN" "http://www.w3.org/Graphics/SVG/1.1/DTD/svg11.dtd">
<svg version="1.1" id="Layer_1" focusable="false" xmlns="http://www.w3.org/2000/svg" xmlns:xlink="http://www.w3.org/1999/xlink"
	 x="0px" y="0px" width="841.89px" height="595.28px" viewBox="0 0 841.89 595.28" enable-background="new 0 0 841.89 595.28"
	 xml:space="preserve">
<path fill="#1B064C" d="M250.616,283.804l156.494-156.494L355.72,76.003l-71.62,71.771c-2.558,1.395-4.534,2.674-6.627,2.674
	c-2.107,0-5.013-1.199-6.504-2.688l-13.029-13.008c-3.604-3.604-3.604-9.534,0-13.138l71.736-71.678l-39.065-39.112
	c-14.429-14.405-37.786-14.405-52.168,0l-104.337,104.29c-14.382,14.405-14.382,37.751,0,52.157L250.616,283.804z M702.192,147.89
	c21.8-21.8,21.8-57.168-0.001-78.968l-52.61-52.61c-21.835-21.823-57.191-21.823-79.026,0l-52.436,53.482l131.613,131.613
	L702.192,147.89z M668.707,388.909l-71.724,71.724c-3.597,3.597-9.437,3.569-13.033-0.028l-13.01-13.01
	c-3.597-3.597-3.597-9.447,0-13.022l71.724-71.724l-51.389-51.373L434.781,467.969l116.498,116.498
	c14.429,14.405,37.786,14.405,52.168,0l104.314-104.29c14.382-14.405,14.382-37.751,0-52.157L668.707,388.909z M490.821,96.163
	L153.883,433.101c-5.413,5.413-9.026,12.359-10.343,19.905L123.728,566.33c-2.945,16.847,11.731,31.508,28.578,28.555L265.7,575.003
	c7.532-1.32,14.475-4.928,19.881-10.336l336.938-336.938L490.821,96.163z"/>
</svg>
