<?xml version="1.0" encoding="utf-8"?>
<!-- Generator: Adobe Illustrator 17.0.0, SVG Export Plug-In . SVG Version: 6.00 Build 0)  -->
<!DOCTYPE svg PUBLIC "-//W3C//DTD SVG 1.1//EN" "http://www.w3.org/Graphics/SVG/1.1/DTD/svg11.dtd">
<svg version="1.1" id="Layer_1" focusable="false" xmlns="http://www.w3.org/2000/svg" xmlns:xlink="http://www.w3.org/1999/xlink"
	 x="0px" y="0px" width="841.89px" height="595.28px" viewBox="0 0 841.89 595.28" enable-background="new 0 0 841.89 595.28"
	 xml:space="preserve">
<path fill="#22045B" d="M625.573,37.205H216.318c-30.822,0-55.807,24.986-55.807,55.808v409.255
	c0,30.822,24.986,55.807,55.807,55.807h159.575V380.991h-73.247V297.64h73.247v-63.528c0-72.259,43.018-112.173,108.906-112.173
	c31.555,0,64.551,5.627,64.551,5.627v70.922h-36.356c-35.821,0-46.995,22.23-46.995,45.03v54.122h79.967l-12.789,83.351h-67.178
	v177.084h159.575c30.822,0,55.807-24.986,55.807-55.807V93.013C681.38,62.191,656.394,37.205,625.573,37.205z"/>
</svg>
