<?xml version="1.0" encoding="utf-8"?>
<!-- Generator: Adobe Illustrator 17.0.0, SVG Export Plug-In . SVG Version: 6.00 Build 0)  -->
<!DOCTYPE svg PUBLIC "-//W3C//DTD SVG 1.1//EN" "http://www.w3.org/Graphics/SVG/1.1/DTD/svg11.dtd">
<svg version="1.1" id="Layer_1" focusable="false" xmlns="http://www.w3.org/2000/svg" xmlns:xlink="http://www.w3.org/1999/xlink"
	 x="0px" y="0px" width="841.89px" height="595.28px" viewBox="0 0 841.89 595.28" enable-background="new 0 0 841.89 595.28"
	 xml:space="preserve">
<path fill="#22045B" d="M625.573,37.205H216.318c-30.81,0-55.807,24.997-55.807,55.808v409.255c0,30.81,24.997,55.807,55.807,55.807
	h409.255c30.81,0,55.807-24.997,55.807-55.807V93.013C681.38,62.202,656.383,37.205,625.573,37.205z M482.915,483.316
	c-9.766,1.744-13.371-4.302-13.371-9.301c0-6.278,0.233-38.368,0.233-64.295c0-18.137-6.046-29.648-13.138-35.694
	C499.657,369.26,545,363.33,545,289.036c0-21.16-7.557-31.741-19.881-45.344c1.977-4.999,8.604-25.578-1.977-52.32
	c-16.161-4.999-53.133,20.812-53.133,20.812c-15.347-4.302-31.973-6.511-48.367-6.511s-33.019,2.209-48.366,6.511
	c0,0-36.973-25.811-53.133-20.812c-10.58,26.625-4.069,47.204-1.977,52.32c-12.324,13.603-18.137,24.183-18.137,45.344
	c0,73.945,43.367,80.223,86.385,84.99c-5.581,4.999-10.58,13.603-12.324,25.927c-11.045,4.999-39.298,13.603-56.156-16.161
	c-10.58-18.37-29.648-19.881-29.648-19.881c-18.835-0.233-1.279,11.859-1.279,11.859c12.557,5.813,21.393,28.136,21.393,28.136
	c11.278,34.531,65.225,22.904,65.225,22.904c0,16.161,0.233,42.437,0.233,47.204c0,4.999-3.488,11.045-13.371,9.301
	c-76.735-25.695-130.45-98.71-130.45-184.049c0-106.732,81.618-187.769,188.35-187.769s193.233,81.037,193.233,187.769
	C611.737,384.607,559.65,457.738,482.915,483.316z M368.858,412.278c-2.209,0.465-4.302-0.465-4.534-1.977
	c-0.233-1.744,1.279-3.255,3.488-3.72c2.209-0.233,4.302,0.698,4.534,2.209C372.695,410.301,371.183,411.813,368.858,412.278
	L368.858,412.278z M357.813,411.232c0,1.511-1.744,2.79-4.069,2.79c-2.558,0.233-4.302-1.046-4.302-2.79
	c0-1.511,1.744-2.79,4.069-2.79C355.72,408.209,357.813,409.488,357.813,411.232z M341.884,409.953
	c-0.465,1.511-2.79,2.209-4.767,1.511c-2.209-0.465-3.721-2.209-3.255-3.72s2.79-2.209,4.767-1.744
	C340.954,406.697,342.466,408.441,341.884,409.953L341.884,409.953z M327.584,403.674c-1.046,1.279-3.255,1.046-4.999-0.698
	c-1.744-1.511-2.209-3.721-1.046-4.767c1.046-1.279,3.255-1.046,4.999,0.698C328.049,400.419,328.63,402.744,327.584,403.674z
	 M317.004,393.094c-1.046,0.698-3.023,0-4.302-1.744c-1.279-1.744-1.279-3.721,0-4.534c1.279-1.046,3.255-0.233,4.302,1.511
	C318.282,390.071,318.282,392.164,317.004,393.094z M309.446,381.816c-1.046,1.046-2.79,0.465-4.069-0.698
	c-1.279-1.511-1.511-3.255-0.465-4.069c1.046-1.046,2.79-0.465,4.069,0.698C310.26,379.258,310.493,381.002,309.446,381.816z
	 M301.656,373.213c-0.465,1.046-1.977,1.279-3.255,0.465c-1.511-0.698-2.209-1.977-1.744-3.023c0.465-0.698,1.744-1.046,3.255-0.465
	C301.424,371.004,302.122,372.283,301.656,373.213z"/>
</svg>
