<?xml version="1.0" encoding="utf-8"?>
<!-- Generator: Adobe Illustrator 17.0.0, SVG Export Plug-In . SVG Version: 6.00 Build 0)  -->
<!DOCTYPE svg PUBLIC "-//W3C//DTD SVG 1.1//EN" "http://www.w3.org/Graphics/SVG/1.1/DTD/svg11.dtd">
<svg version="1.1" id="Layer_1" focusable="false" xmlns="http://www.w3.org/2000/svg" xmlns:xlink="http://www.w3.org/1999/xlink"
	 x="0px" y="0px" width="841.89px" height="595.28px" viewBox="0 0 841.89 595.28" enable-background="new 0 0 841.89 595.28"
	 xml:space="preserve">
<path fill="#22045B" d="M644.175,37.205H197.599c-20.463,0-37.089,16.859-37.089,37.554v445.762
	c0,20.695,16.626,37.554,37.089,37.554h446.576c20.463,0,37.205-16.859,37.205-37.554V74.759
	C681.38,54.064,664.638,37.205,644.175,37.205z M317.934,483.665h-77.2V235.089h77.317v248.576H317.934z M279.333,201.14
	c-24.765,0-44.762-20.114-44.762-44.762s19.998-44.762,44.762-44.762c24.648,0,44.762,20.114,44.762,44.762
	C324.096,181.142,304.098,201.14,279.333,201.14z M607.319,483.665h-77.2V362.749c0-28.834-0.581-65.923-40.112-65.923
	c-40.228,0-46.39,31.392-46.39,63.83v123.009h-77.2V235.089h74.061v33.95h1.046c10.348-19.533,35.577-40.112,73.131-40.112
	c78.13,0,92.664,51.506,92.664,118.475V483.665z"/>
</svg>
